<?xml version="1.0"?>
<svg xmlns="http://www.w3.org/2000/svg" height="512px" viewBox="0 0 512 512" width="512px" class=""><g><path d="m503.992188 192.25c-11.339844-44.242188-34.5-84.792969-66.972657-117.269531-32.476562-32.472657-73.027343-55.632813-117.273437-66.972657l-18.722656-4.800781v207.769531h207.769531zm0 0" data-original="#000000" class="active-path" data-old_color="#000000" fill="#33547D"/><path d="m271.023438 240.976562v-225.976562l-.023438-15h-15c-68.378906 0-132.667969 26.628906-181.019531 74.980469-48.351563 48.351562-74.980469 112.640625-74.980469 181.019531s26.628906 132.667969 74.980469 181.019531c48.351562 48.351563 112.640625 74.980469 181.019531 74.980469s132.667969-26.628906 181.019531-74.980469c48.351563-48.351562 74.980469-112.640625 74.980469-181.042969v-15zm0 0" data-original="#000000" class="active-path" data-old_color="#000000" fill="#33547D"/></g> </svg>
